<?xml version="1.0" standalone="no"?>
<!DOCTYPE svg PUBLIC "-//W3C//DTD SVG 1.1//EN" "http://www.w3.org/Graphics/SVG/1.1/DTD/svg11.dtd" >
<svg xmlns="http://www.w3.org/2000/svg">
<metadata>Generated by IcoMoon</metadata>
<defs>
<font id="icomoon" horiz-adv-x="1024">
<font-face units-per-em="1024" ascent="960" descent="-64" />
<missing-glyph horiz-adv-x="1024" />
<glyph unicode="&#x20;" horiz-adv-x="512" d="" />
<glyph unicode="&#xe900;" glyph-name="-" d="M825.6 780.8l-358.4-358.4c-12.8-12.8-25.6-12.8-38.4 0l-6.4 6.4c-12.8 12.8-12.8 25.6 0 38.4l358.4 358.4c12.8 12.8 25.6 12.8 38.4 0l6.4-6.4c12.8-12.8 12.8-25.6 0-38.4zM467.2 473.6l358.4-358.4c12.8-12.8 12.8-25.6 0-38.4l-6.4-6.4c-12.8-12.8-25.6-12.8-38.4 0l-358.4 358.4c-12.8 12.8-12.8 25.6 0 38.4l6.4 6.4c12.8 12.8 25.6 12.8 38.4 0zM627.2 780.8l-358.4-358.4c-12.8-12.8-25.6-12.8-38.4 0l-6.4 6.4c-12.8 12.8-12.8 25.6 0 38.4l358.4 358.4c12.8 12.8 25.6 12.8 38.4 0l6.4-6.4c12.8-12.8 12.8-25.6 0-38.4zM268.8 473.6l358.4-358.4c12.8-12.8 12.8-25.6 0-38.4l-6.4-6.4c-12.8-12.8-25.6-12.8-38.4 0l-358.4 358.4c-12.8 12.8-12.8 25.6 0 38.4l6.4 6.4c12.8 12.8 25.6 12.8 38.4 0z" />
<glyph unicode="&#xe901;" glyph-name="uniE900" d="M441.6 317.867h-256v362.667h497.067v-87.467s70.4 4.267 106.667-8.533v93.867s-2.133 113.067-108.8 113.067h-488.533c0-2.133-106.667-10.667-106.667-119.467v-347.733s-6.4-115.2 104.533-115.2 170.667-2.133 170.667-2.133 10.667-34.133-66.133-51.2c-81.067-14.933-153.6-14.933-164.267-70.4h430.933s-125.867 91.733-119.467 232.533zM725.333 541.867c-125.867 0-228.267-102.4-228.267-228.267s102.4-228.267 228.267-228.267c125.867 0 228.267 102.4 228.267 228.267s-102.4 228.267-228.267 228.267zM689.067 486.4c10.667 2.133 23.467 4.267 34.133 4.267 12.8 0 25.6-2.133 38.4-4.267l-2.133-2.133c12.8-36.267 21.333-70.4 25.6-104.533-44.8-6.4-85.333-4.267-117.333 0 4.267 34.133 12.8 68.267 25.6 104.533l-4.267 2.133zM550.4 279.467c-2.133 10.667-4.267 21.333-4.267 34.133 0 19.2 4.267 38.4 10.667 57.6 19.2-10.667 40.533-17.067 59.733-23.467-2.133-27.733-2.133-55.467 2.133-87.467-42.667 8.533-68.267 19.2-68.267 19.2zM571.733 228.267c19.2-6.4 38.4-12.8 55.467-17.067 4.267-17.067 8.533-34.133 14.933-53.333-29.867 14.933-55.467 40.533-70.4 70.4zM622.933 390.4c-25.6 6.4-42.667 14.933-46.933 17.067 17.067 27.733 40.533 49.067 68.267 64-8.533-21.333-17.067-49.067-21.333-81.067zM759.467 140.8c-10.667-2.133-23.467-4.267-34.133-4.267s-21.333 2.133-32 2.133c0 2.133-10.667 25.6-19.2 64 38.4-4.267 72.533-4.267 104.533 0-8.533-34.133-17.067-55.467-19.2-61.867zM785.067 251.733c-44.8-6.4-85.333-4.267-119.467 0-2.133 25.6-4.267 53.333-2.133 83.2 46.933-8.533 89.6-6.4 125.867 0 0-29.867 0-57.6-4.267-83.2zM874.667 405.333c-14.933-6.4-29.867-10.667-44.8-14.933-6.4 32-12.8 57.6-19.2 76.8 25.6-14.933 49.067-36.267 64-61.867zM810.667 160c6.4 17.067 10.667 34.133 14.933 51.2 21.333 4.267 38.4 10.667 53.333 17.067-14.933-29.867-38.4-53.333-68.267-68.267zM898.133 279.467c-21.333-8.533-42.667-14.933-64-19.2 4.267 32 4.267 59.733 2.133 87.467 32 10.667 53.333 21.333 57.6 23.467 6.4-17.067 10.667-36.267 10.667-57.6-2.133-12.8-4.267-23.467-6.4-34.133z" />
<glyph unicode="&#xe902;" glyph-name="rb" d="M200.020 288.010c-4.422 0-8 3.578-8 8v271.982c0 4.422 3.578 8 8 8s8-3.578 8-8v-271.982c0-4.422-3.578-8-8-8zM504.002 288.010h-303.982c-4.422 0-8 3.578-8 8 0 0.001 0 0.003 0 0.004 0 4.415 3.579 7.994 7.994 7.994 0.002 0 0.004 0 0.006 0h303.982c0.001 0 0.003 0 0.004 0 4.415 0 7.994-3.579 7.994-7.994 0-0.001 0-0.003 0-0.004v0c0-4.422-3.578-8-7.998-8zM232.018 352.006c-0.002 0-0.004 0-0.006 0-4.416 0-7.996 3.58-7.996 7.996 0 2.21 0.897 4.211 2.346 5.658v0l95.994 95.996c1.457 1.507 3.496 2.442 5.754 2.442 4.418 0 8-3.582 8-8 0-2.258-0.935-4.298-2.44-5.752l-95.996-95.996c-1.444-1.448-3.441-2.344-5.648-2.344-0.003 0-0.006 0-0.009 0v0zM376.010 400.004c-0.002 0-0.005 0-0.008 0-2.206 0-4.204 0.896-5.648 2.344v0l-47.998 47.996c-1.507 1.457-2.442 3.496-2.442 5.754 0 4.418 3.582 8 8 8 2.258 0 4.298-0.935 5.752-2.44l47.998-48c1.449-1.447 2.346-3.448 2.346-5.658 0-4.416-3.58-7.996-7.996-7.996-0.001 0-0.003 0-0.004 0v0zM376.010 400.004c-0.002 0-0.004 0-0.006 0-4.416 0-7.996 3.58-7.996 7.996 0 2.21 0.897 4.211 2.346 5.658v0l127.992 127.992c1.434 1.374 3.384 2.22 5.531 2.22 4.418 0 8-3.582 8-8 0-2.148-0.846-4.098-2.224-5.535l-127.989-127.989c-1.445-1.447-3.441-2.342-5.647-2.342-0.002 0-0.005 0-0.007 0v0zM504.002 495.998c-4.422 0-8 3.578-8 8v31.998c0 4.422 3.578 8 8 8 0.001 0 0.003 0 0.004 0 4.415 0 7.994-3.579 7.994-7.994 0-0.002 0-0.004 0-0.006v0-31.998c0-4.422-3.578-8-7.998-8zM504.002 527.996h-31.998c-4.422 0-8 3.578-8 8s3.578 8 8 8h31.998c0.001 0 0.003 0 0.004 0 4.415 0 7.994-3.579 7.994-7.994 0-0.002 0-0.004 0-0.006v0c0-4.422-3.578-8-7.998-8zM751.986 320.008c-79.4 0-143.99 64.59-143.99 143.992s64.59 143.992 143.99 143.992 143.99-64.592 143.99-143.992-64.59-143.992-143.99-143.992zM751.986 591.992c-70.574 0-127.992-57.418-127.992-127.992s57.418-127.992 127.992-127.992 127.992 57.418 127.992 127.992-57.418 127.992-127.992 127.992zM751.986 288.010c-79.4 0-143.99 64.59-143.99 143.99 0 4.422 3.578 8 7.998 8 4.422 0 8-3.578 8-8 0-70.572 57.418-127.992 127.992-127.992s127.992 57.42 127.992 127.992c0 4.422 3.578 8 8 8 0.001 0 0.003 0 0.004 0 4.415 0 7.994-3.579 7.994-7.994 0-0.002 0-0.004 0-0.006v0c0-79.4-64.59-143.99-143.99-143.99zM615.994 424.002c-0.001 0-0.003 0-0.004 0-4.415 0-7.994 3.579-7.994 7.994 0 0.001 0 0.003 0 0.004v0 32c0 4.42 3.578 8 7.998 8 4.422 0 8-3.578 8-8v-32c0-0.001 0-0.003 0-0.004 0-4.415-3.579-7.994-7.994-7.994-0.002 0-0.004 0-0.006 0v0zM887.978 424.002c-4.422 0-8 3.578-8 7.998v32c0 4.42 3.578 8 8 8 0.001 0 0.003 0 0.004 0 4.415 0 7.994-3.579 7.994-7.994 0-0.002 0-0.004 0-0.006v0-32c0-0.001 0-0.003 0-0.004 0-4.415-3.579-7.994-7.994-7.994-0.001 0-0.003 0-0.004 0v0zM751.986 400.004c-35.28 0-63.996 28.7-63.996 63.996 0 35.294 28.716 63.996 63.996 63.996s63.996-28.702 63.996-63.996c0-35.296-28.716-63.996-63.996-63.996zM751.986 511.996c-26.466 0-47.998-21.53-47.998-47.998s21.532-47.998 47.998-47.998 47.998 21.53 47.998 47.998-21.53 47.998-47.998 47.998zM805.67 440c-3.603 0.006-6.648 2.387-7.655 5.661l-0.015 0.057c-6 20.186-24.922 34.28-46.014 34.28s-40.014-14.092-46.014-34.28c-1.266-4.218-5.672-6.61-9.952-5.39-3.336 1.016-5.722 4.066-5.722 7.673 0 0.813 0.121 1.598 0.347 2.337l-0.015-0.057c8.016 26.92 33.232 45.716 61.356 45.716s53.34-18.796 61.356-45.716c0.211-0.683 0.332-1.468 0.332-2.281 0-3.607-2.386-6.657-5.665-7.658l-0.057-0.015c-0.683-0.205-1.468-0.325-2.28-0.328h-0.002zM711.91 496.076c-0.002 0-0.005 0-0.008 0-2.206 0-4.204 0.896-5.648 2.344v0l-56.074 56.076c-1.374 1.434-2.22 3.384-2.22 5.531 0 4.418 3.582 8 8 8 2.148 0 4.098-0.846 5.535-2.224l56.071-56.071c1.447-1.448 2.342-3.447 2.342-5.656 0-4.418-3.581-7.999-7.998-8v0zM751.986 320.008c-4.422 0-8 3.578-8 8v79.994c0 4.422 3.578 8 8 8s8-3.578 8-8v-79.994c0-4.422-3.578-8-8-8zM504.002 224.014h-303.982c-4.422 0-8 3.578-8 8 0 0.001 0 0.003 0 0.004 0 4.415 3.579 7.994 7.994 7.994 0.002 0 0.004 0 0.006 0h303.982c0.001 0 0.003 0 0.004 0 4.415 0 7.994-3.579 7.994-7.994 0-0.001 0-0.003 0-0.004v0c0-4.422-3.578-8-7.998-8zM504.002 192.016h-303.982c-4.422 0-8 3.578-8 8s3.578 8 8 8h303.982c4.42 0 7.998-3.578 7.998-8s-3.578-8-7.998-8zM280.016 160.018h-79.996c-4.422 0-8 3.578-8 8 0 0.001 0 0.003 0 0.004 0 4.415 3.579 7.994 7.994 7.994 0.002 0 0.004 0 0.006 0h79.996c0.001 0 0.003 0 0.004 0 4.415 0 7.994-3.579 7.994-7.994 0-0.001 0-0.003 0-0.004v0c0-4.422-3.578-8-7.998-8zM919.976 224.014h-303.982c-0.001 0-0.003 0-0.004 0-4.415 0-7.994 3.579-7.994 7.994 0 0.002 0 0.004 0 0.006v0c0 0.001 0 0.003 0 0.004 0 4.415 3.579 7.994 7.994 7.994 0.001 0 0.003 0 0.004 0h303.982c4.422 0 8-3.578 8-7.998 0-4.422-3.578-8-8-8zM919.976 192.016h-303.982c-4.42 0-7.998 3.578-7.998 8s3.578 8 7.998 8h303.982c4.422 0 8-3.578 8-8s-3.578-8-8-8zM695.99 160.018h-79.996c-0.001 0-0.003 0-0.004 0-4.415 0-7.994 3.579-7.994 7.994 0 0.002 0 0.004 0 0.006v0c0 0.001 0 0.003 0 0.004 0 4.415 3.579 7.994 7.994 7.994 0.001 0 0.003 0 0.004 0h79.996c0.001 0 0.003 0 0.004 0 4.415 0 7.994-3.579 7.994-7.994 0-0.001 0-0.003 0-0.004v0c0-4.422-3.578-8-7.998-8zM1015.97 112.020c-4.422 0-8 3.578-8 8v703.956c0 4.422 3.578 8 8 8 0.001 0 0.003 0 0.004 0 4.415 0 7.994-3.579 7.994-7.994 0-0.002 0-0.004 0-0.006v0-703.956c0-4.422-3.578-8-7.998-8zM104.026 112.020c-4.422 0-8 3.578-8 8v703.956c0 4.422 3.578 8 8 8s8-3.578 8-8v-703.956c0-4.422-3.578-8-8-8zM56.030 64.024c-4.422 0-8 3.578-8 8s3.578 8 8 8c22.052 0 39.996 17.936 39.996 39.996 0 4.422 3.578 8 8 8s8-3.578 8-8c0-30.874-25.124-55.996-55.996-55.996zM967.972 64.024c-4.422 0-8 3.578-8 8s3.578 8 8 8c22.062 0 39.998 17.936 39.998 39.996 0 4.422 3.578 8 8 8 0.001 0 0.003 0 0.004 0 4.415 0 7.994-3.579 7.994-7.994 0-0.002 0-0.004 0-0.006v0c0-30.874-25.122-55.996-55.996-55.996zM56.030 64.024c-30.874 0-55.998 25.124-55.998 55.996 0 4.422 3.578 8 8 8s8-3.578 8-8c0-22.060 17.944-39.996 39.998-39.996 4.42 0 7.998-3.578 7.998-8s-3.578-8-7.998-8zM8.032 112.020c-4.422 0-8 3.578-8 8v655.96c0 4.42 3.578 8 8 8s8-3.578 8-8v-655.96c0-4.422-3.578-8-8-8zM72.028 112.020c-4.422 0-8 3.578-8 8v687.958c0 4.42 3.578 8 8 8s8-3.578 8-8v-687.958c0-4.422-3.578-8-8-8zM40.030 112.020c-4.422 0-8 3.578-8 8v671.958c0 4.422 3.578 8 8 8s8-3.578 8-8v-671.958c0-4.422-3.578-8-8-8zM56.030 96.022c-4.422 0-8 3.578-8 8 0 0.001 0 0.003 0 0.004 0 4.415 3.579 7.994 7.994 7.994 0.002 0 0.004 0 0.006 0v0c4.415 0.007 7.992 3.585 7.998 7.999v0.001c0 4.422 3.578 8 8 8s8-3.578 8-8c0-13.232-10.766-23.998-23.998-23.998zM56.030 96.022c-13.234 0-24 10.766-24 23.998 0 4.422 3.578 8 8 8s8-3.578 8-8c0-4.406 3.586-8 8-8 0.001 0 0.003 0 0.004 0 4.415 0 7.994-3.579 7.994-7.994 0-0.001 0-0.003 0-0.004v0c0-4.422-3.578-8-7.998-8zM967.972 64.024h-911.942c-4.422 0-8 3.578-8 8s3.578 8 8 8h911.944c4.422 0 8-3.578 8-8s-3.58-8-8.002-8zM1015.97 815.978h-911.944c-4.422 0-8 3.578-8 8s3.578 8 8 8h911.946c0.001 0 0.003 0 0.004 0 4.415 0 7.994-3.579 7.994-7.994 0-0.002 0-0.004 0-0.006v0c0-0.001 0-0.001 0-0.002 0-4.417-3.581-7.998-7.998-7.998-0.001 0-0.001 0-0.002 0v0zM951.974 655.988h-751.954c-4.422 0-8 3.578-8 8v95.992c0 4.422 3.578 8 8 8h751.956c0.001 0 0.003 0 0.004 0 4.415 0 7.994-3.579 7.994-7.994 0-0.002 0-0.004 0-0.006v0-95.994c0-4.417-3.581-7.998-7.998-7.998-0.001 0-0.001 0-0.002 0v0zM208.020 671.986h735.956v79.996h-735.956v-79.996zM903.976 703.984h-655.958c-4.422 0-8 3.578-8 8 0 4.42 3.578 8 8 8h655.958c4.422 0 8-3.578 8-8s-3.578-8-8-8z" />
<glyph unicode="&#xe903;" glyph-name="th" horiz-adv-x="1025" d="M512.1 896c60.6 0 119.3-11.8 174.4-35.1 53.1-22.5 101-54.7 142.1-95.8l1.3-1.3 1.4-1.3 0.8-0.7c39.8-41.1 71.1-88.3 93.1-140.6 23.1-54.9 34.7-113 34.7-172.8 0-47.1-7.4-93.9-22.1-139.1l-0.2-0.4c-12.7-39.9-32-78.7-57.3-115.1l-11.4-16.5v-176.8h-357c-60.7 0-119.4 11.8-174.4 35-53.3 22.5-100.9 54.7-141.5 95.8l-15.6 15.7c-34.1 37.6-61.4 80.2-81.3 127-23.5 55.3-35.4 114-35.4 174.3 0 60.2 11.9 118.8 35.4 173.9 22.7 53.2 55.2 101.2 96.5 142.6l15.6 15.6c37.3 33.7 79.7 60.7 126.1 80.3 55.6 23.5 114.3 35.3 174.8 35.3zM512.1 960c-141.5 0-269.5-57.3-362-149.6l0.6-0.3c-92.8-92.7-150.7-220.5-150.7-361.6 0-141.4 57.9-269.5 150.1-362h0.6c92-93.1 220-149.8 361.5-149.8h381.6c21.8 0 39.4 17.1 39.4 39.4v181.4c27.9 40.3 50.6 84.7 65.7 132.2 16.2 50 25.2 103.4 25.2 158.8 0 140.1-56.8 267-147.6 359.8l-2.5 2.2c-92.7 92.2-220.1 149.5-361.9 149.5v0zM768 640h-512c-17.7 0-32 14.3-32 32s14.3 32 32 32h512c17.7 0 32-14.3 32-32s-14.3-32-32-32zM768 448h-512c-17.7 0-32 14.3-32 32s14.3 32 32 32h512c17.7 0 32-14.3 32-32s-14.3-32-32-32zM768 256h-512c-17.7 0-32 14.3-32 32s14.3 32 32 32h512c17.7 0 32-14.3 32-32s-14.3-32-32-32z" />
<glyph unicode="&#xe904;" glyph-name="wb" d="M714.138 468.475c10.073 42.873-1.182 69.892-13.414 85.548-28.954 37.060-87.865 43.67-161.624 19.517 8.088 41.054 1.1 74.453-20.724 96.276-28.413 28.414-76.586 31.683-135.643 9.207-53.71-20.441-111.845-60.254-163.698-112.106-38.567-38.566-70.806-81.010-93.231-122.743-22.532-41.93-34.15-81.262-33.613-113.782l-0.004-0.18c-0.014-0.501-0.026-1.002-0.026-1.505 0-34.073 10.617-66.942 31.556-97.696 19.568-28.739 47.322-54.389 82.492-76.237 70.509-43.801 163.837-67.923 262.792-67.923s192.284 24.122 262.792 67.923c35.17 21.848 62.925 47.498 82.492 76.237 20.939 30.753 31.556 63.623 31.556 97.696 0 55.312-47.709 105.634-131.704 139.768zM710.179 189.567c-64.106-39.824-149.759-61.756-241.178-61.756s-177.071 21.932-241.178 61.756c-61.071 37.937-94.704 87.351-94.704 139.122l0.009 0.383c0.010 0.359 0.019 0.719 0.023 1.079 0.002 0.209 0.001 0.418-0.003 0.627-0.499 25.212 9.705 58.597 28.734 94.007 20.559 38.259 50.337 77.391 86.114 113.168 47.854 47.855 100.878 84.358 149.303 102.788 21.278 8.098 40.322 12.147 56.055 12.147 15.656 0 28.033-4.012 36.056-12.035 16.358-16.357 16.048-50.618-0.85-93.997-3.013-7.733-1.061-16.519 4.944-22.249s14.873-7.269 22.455-3.9c37.002 16.441 71.431 25.448 99.567 26.049 17.454 0.368 40.801-2.44 52.917-17.95 7.691-9.844 14.177-29.284 1.403-66.001-3.694-10.617 1.861-22.227 12.445-26.014 76.76-27.455 122.587-67.862 122.587-108.085 0.002-51.787-33.631-101.201-94.701-139.138zM592.759 423.096c-45.271 20.865-103.397 29.452-163.677 24.179-60.278-5.274-116.031-23.823-156.991-52.233-43.949-30.482-66.255-68.956-62.81-108.334s32.093-73.394 80.668-95.782c36.565-16.853 81.511-25.694 129.209-25.694 11.357 0 22.875 0.502 34.469 1.516 60.278 5.274 116.031 23.823 156.991 52.233 43.949 30.482 66.256 68.957 62.81 108.335-3.447 39.377-32.095 73.393-80.669 95.781zM450.501 202.45c-54.162-4.738-105.855 2.728-145.551 21.024-36.394 16.773-57.69 40.339-59.966 66.356s14.604 52.922 47.532 75.762c35.917 24.912 85.526 41.241 139.69 45.98 10.388 0.908 20.644 1.348 30.726 1.348 93.224 0 170.317-37.582 174.792-88.728 4.958-56.678-80.778-112.428-187.222-121.741zM772.093 541.414c0-11.311 9.169-20.48 20.48-20.48s20.48 9.169 20.48 20.48c0 70.837-57.631 128.468-128.468 128.468-11.311 0-20.48-9.169-20.48-20.48s9.169-20.48 20.48-20.48c48.252 0 87.508-39.256 87.508-87.508zM859.421 716.25c-46.701 46.701-108.792 72.419-174.836 72.419-11.311 0-20.48-9.169-20.48-20.48s9.169-20.48 20.48-20.48c113.751 0 206.295-92.544 206.295-206.295 0-11.311 9.169-20.48 20.48-20.48s20.48 9.169 20.48 20.48c0 66.044-25.719 128.135-72.419 174.836zM367.624 303.939c0-28.277 22.923-51.2 51.2-51.2s51.2 22.923 51.2 51.2v0c0 28.277-22.923 51.2-51.2 51.2s-51.2-22.923-51.2-51.2v0z" />
<glyph unicode="&#xe905;" glyph-name="2" d="M512 960c-285.257 0-512-226.743-512-512s226.743-512 512-512 512 226.743 512 512-226.743 512-512 512zM512 9.143c-241.371 0-438.857 197.486-438.857 438.857s197.486 438.857 438.857 438.857 438.857-197.486 438.857-438.857-197.486-438.857-438.857-438.857zM731.429 484.571h-182.857v182.857c0 21.943-14.629 36.571-36.571 36.571s-36.571-14.629-36.571-36.571v-182.857h-182.857c-21.943 0-36.571-14.629-36.571-36.571s14.629-36.571 36.571-36.571h182.857v-182.857c0-21.943 14.629-36.571 36.571-36.571s36.571 14.629 36.571 36.571v182.857h182.857c21.943 0 36.571 14.629 36.571 36.571s-14.629 36.571-36.571 36.571z" />
<glyph unicode="&#xe906;" glyph-name="---" d="M320 448h-128c-70.4 0-128-57.6-128-128v-128c0-70.4 57.6-128 128-128h128c70.4 0 128 57.6 128 128v128c0 70.4-57.6 128-128 128zM384 192c0-35.2-28.8-64-64-64h-128c-35.2 0-64 28.8-64 64v128c0 35.2 28.8 64 64 64h128c35.2 0 64-28.8 64-64v-128zM768 896h-128c-70.4 0-128-57.6-128-128v-128c0-70.4 57.6-128 128-128h128c70.4 0 128 57.6 128 128v128c0 70.4-57.6 128-128 128zM832 640c0-35.2-28.8-64-64-64h-128c-35.2 0-64 28.8-64 64v128c0 35.2 28.8 64 64 64h128c35.2 0 64-28.8 64-64v-128zM768 448h-128c-70.4 0-128-57.6-128-128v-128c0-70.4 57.6-128 128-128h128c70.4 0 128 57.6 128 128v128c0 70.4-57.6 128-128 128zM832 192c0-35.2-28.8-64-64-64h-128c-35.2 0-64 28.8-64 64v128c0 35.2 28.8 64 64 64h128c35.2 0 64-28.8 64-64v-128zM320 896h-128c-70.4 0-128-57.6-128-128v-128c0-70.4 57.6-128 128-128h128c70.4 0 128 57.6 128 128v128c0 70.4-57.6 128-128 128zM384 640c0-35.2-28.8-64-64-64h-128c-35.2 0-64 28.8-64 64v128c0 35.2 28.8 64 64 64h128c35.2 0 64-28.8 64-64v-128z" />
<glyph unicode="&#xe907;" glyph-name="3" d="M509.867 870.4c-234.667 0-424.533-189.867-424.533-424.533s189.867-424.533 424.533-424.533c98.133 0 189.867 32 264.533 91.733 8.533 6.4 10.667 19.2 4.267 29.867-6.4 8.533-19.2 10.667-29.867 4.267-68.267-53.333-151.467-83.2-238.933-83.2-211.2 0-384 170.667-384 381.867s170.667 381.867 384 381.867c211.2 0 384-170.667 384-381.867 0-72.533-19.2-140.8-57.6-202.667-6.4-10.667-2.133-23.467 6.4-27.733 10.667-6.4 23.467-2.133 27.733 6.4 42.667 66.133 64 142.933 64 224 0 234.667-189.867 424.533-424.533 424.533zM507.733 631.467l44.8-89.6c8.533-19.2 27.733-32 49.067-36.267l98.133-14.933-72.533-70.4c-14.933-14.933-21.333-36.267-17.067-57.6l17.067-98.133-89.6 46.933c-8.533 4.267-19.2 8.533-29.867 8.533s-21.333-2.133-29.867-8.533l-89.6-46.933 17.067 98.133c4.267 21.333-4.267 42.667-19.2 57.6l-72.533 70.4 98.133 14.933c21.333 2.133 40.533 17.067 49.067 36.267l46.933 89.6zM507.733 672c-10.667 0-21.333-6.4-27.733-17.067l-46.933-96c-4.267-8.533-12.8-14.933-23.467-17.067l-106.667-14.933c-25.6-4.267-36.267-36.267-17.067-53.333l76.8-74.667c6.4-6.4 10.667-17.067 8.533-27.733l-19.2-106.667c-4.267-19.2 12.8-36.267 29.867-36.267 4.267 0 10.667 2.133 14.933 4.267l96 51.2c4.267 2.133 8.533 4.267 14.933 4.267 4.267 0 10.667-2.133 14.933-4.267l96-51.2c4.267-2.133 10.667-4.267 14.933-4.267 17.067 0 34.133 17.067 29.867 36.267l-19.2 106.667c-2.133 10.667 2.133 21.333 8.533 27.733l76.8 74.667c19.2 17.067 8.533 49.067-17.067 53.333l-106.667 14.933c-10.667 2.133-19.2 8.533-23.467 17.067l-46.933 96c-6.4 10.667-17.067 17.067-27.733 17.067z" />
<glyph unicode="&#xe908;" glyph-name="4" d="M519.168 889.856l96.614-195.661 215.91-31.386-156.262-152.32 36.915-215.066-193.178 101.504-193.075-101.504 36.813 215.066-156.237 152.32 215.962 31.386zM244.122 379.955l54.733-110.925 122.419-17.792-88.576-86.349 20.915-121.882-109.491 57.549-109.491-57.549 20.915 121.882-88.576 86.349 122.419 17.792zM779.878 379.955l54.758-110.925 122.394-17.792-88.576-86.349 20.864-121.882-109.44 57.549-109.466-57.549 20.89 121.882-88.576 86.349 122.394 17.792z" />
<glyph unicode="&#xe909;" glyph-name="5" horiz-adv-x="1054" d="M542.72 807.424q45.056 62.464 100.352 92.16t112.128 30.72 110.592-23.040 95.232-68.608 67.072-106.496 25.6-136.704q0-77.824-29.184-145.408t-74.24-125.952-99.328-108.544-104.448-91.136q-34.816-28.672-61.952-50.176t-47.616-38.912-36.352-30.72-29.184-24.576q-8.192 6.144-14.336 19.456-5.12 11.264-9.728 32.768t-4.608 55.296q0 44.032 4.608 70.144t9.728 40.448q6.144 16.384 14.336 21.504 13.312 11.264 30.72 25.088t44.032 35.328q27.648 22.528 56.832 49.664t53.76 58.88 40.448 68.608 15.872 79.872q0 49.152-20.48 88.576t-51.712 62.976-69.632 28.672-75.264-12.288q-7.168-17.408-21.504-29.184t-32.768-15.872q-3.072-5.12-6.656-9.728t-7.68-10.752q-8.192 13.312-14.336 20.48-19.456 4.096-33.792 15.872t-21.504 29.184q-36.864 17.408-74.752 12.288t-69.632-29.184-51.712-63.488-19.968-89.6q0-41.984 15.872-78.848t40.448-68.096 54.272-58.368 56.32-49.664q25.6-21.504 43.008-35.84t30.72-25.6q8.192-5.12 14.336-21.504 5.12-14.336 10.24-39.936t5.12-69.632q0-32.768-5.12-53.76t-10.24-33.28q-6.144-14.336-14.336-21.504-13.312 11.264-29.184 24.576t-36.352 30.208-47.104 38.912-61.44 51.712q-49.152 41.984-103.936 91.648t-99.84 107.52-74.752 124.928-29.696 144.896q0 74.752 25.6 137.216t67.072 107.008 95.744 69.12 111.104 23.552 112.128-30.72 100.352-92.16q10.24 2.048 15.36 2.048t15.36-2.048z" />
<glyph unicode="&#xe90a;" glyph-name="-1" d="M555.087 820.815c76.012-87.198 157.617-256.236 161.241-447.173 0.727-42.9 35.675-77.399 78.68-77.399 17.795 0 34.21 5.907 47.392 15.866l-0.198-0.144c3.86 2.914 18.117 13.785 36.391 30.878 1.26-56.714-12.524-119.257-41.196-179.2-20.795-43.402-47.419-80.266-75.618-106.496-15.833 36.785-44.426 61.204-72.862 81.999-12.682 9.295-23.71 17.329-32.847 27.412-13.548 14.966-43.874 56.005-33.713 113.428 0.787 4.179 1.237 8.987 1.237 13.9 0 43.46-35.231 78.69-78.69 78.69-14.016 0-27.176-3.664-38.574-10.087l0.394 0.204c-127.212-70.341-198.971-172.19-210.078-294.361-79.714 42.85-128.236 94.366-144.699 153.915-21.346 76.879 13.548 165.022 60.495 232.921 10.146-32.438 39.922-55.568 75.1-55.568 14.942 0 28.91 4.173 40.801 11.417l-0.347-0.196c160.217 95.39 210.393 273.959 227.092 409.994zM485.061 960c-3.623-153.127-23.946-378.25-197.396-481.516 5.829 90.663-9.216 138.398-31.35 186.368-11.106-59.077-35.998-75.067-75.618-121.777-117.445-138.398-252.77-442.762 204.8-597.78-39.227 156.514 19.85 271.36 159.35 348.475-1.984-10.914-3.119-23.476-3.119-36.302 0-55.496 21.24-106.031 56.034-143.919l-0.14 0.155c53.878-59.55 123.589-55.926 88.537-177.703 190.070 14.73 359.739 376.359 219.53 581.159-22.134-76.091-110.671-142.1-110.671-142.1-5.514 293.415-180.775 560.994-309.957 584.94z" />
<glyph unicode="&#xe90b;" glyph-name="61" d="M781.198 803.214c-6.58 6.057-15.4 9.771-25.087 9.771-20.485 0-37.092-16.606-37.092-37.092 0-0.715 0.020-1.426 0.060-2.132l-0.004 0.098c0.16-4.069 0.251-8.847 0.251-13.646 0-38.398-5.831-75.434-16.656-110.271l0.704 2.63c-33.451 88.292-107.861 239.161-238.478 284.672-3.27 1.074-7.033 1.694-10.94 1.694-8.138 0-15.649-2.687-21.694-7.222l0.094 0.067c-9.323-7.049-15.286-18.118-15.286-30.579 0-0.61 0.014-1.216 0.043-1.819l-0.003 0.085c4.779-109.909-73.728-238.478-117.874-301.511-15.944 50.756-43.005 94.127-78.463 128.981l-0.044 0.043c-6.492 6.246-15.332 10.093-25.069 10.093-6.507 0-12.613-1.718-17.889-4.725l0.178 0.094c-11.498-6.622-19.114-18.843-19.114-32.843 0-2.062 0.165-4.085 0.483-6.058l-0.029 0.217c2.485-12.95 3.907-27.846 3.907-43.073 0-48.836-14.624-94.256-39.731-132.121l0.553 0.886c-29.105-46.474-46.57-102.836-47.103-163.24l-0.001-0.145c0-231.652 184.092-400.043 437.589-400.043s437.589 168.164 437.589 400.043c-1.138 255.090-107.406 389.803-170.894 447.147zM513.365 4.267c-226.19 0-390.258 148.366-390.258 352.711 0.481 52.378 15.847 101.071 42.063 142.171l-0.648-1.086c27.852 43.269 44.403 96.104 44.403 152.805 0 7.086-0.259 14.112-0.767 21.069l0.055-0.931c27.197-36.418 46.833-80.090 55.681-127.557l0.298-1.922 8.875-53.931 33.906 41.415c6.599 7.964 155.876 191.829 157.696 357.945 149.732-64.853 213.447-308.793 214.13-311.296l15.474-60.075 28.444 55.296c25.803 52.87 41.776 114.775 43.9 180.181l0.019 0.726c57.799-59.62 136.533-182.044 136.533-395.719 0.683-204.572-163.612-351.801-389.803-351.801zM554.098 580.665c-4.014 6.825-11.321 11.333-19.681 11.333-11.185 0-20.485-8.070-22.396-18.704l-0.021-0.138c-16.075-80.85-47.836-152.32-92.148-214.19l1.125 1.653-5.689-7.964c-24.036-29.227-43.623-63.253-57.041-100.236l-0.758-2.391c-3.256-9.229-5.138-19.871-5.138-30.952 0-37.19 21.191-69.43 52.157-85.305l0.54-0.251c20.306-10.901 44.428-17.306 70.047-17.306 0.654 0 1.307 0.004 1.96 0.013l-0.099-0.001c19.401 0.018 38.019 3.35 55.324 9.461l-1.166-0.359c37.308 11.462 67.064 37.726 82.94 71.766l0.345 0.825c35.954 83.968 16.156 179.541-1.82 244.395-11.911 52.46-32.128 98.739-59.445 139.898l0.964-1.544zM570.254 216.576c-10.304-22.704-29.418-39.886-52.86-47.389l-0.616-0.17c-11.222-4.068-24.175-6.419-37.677-6.419-18.264 0-35.522 4.303-50.817 11.951l0.658-0.298c-16.805 7.92-28.227 24.719-28.227 44.186 0 6.459 1.257 12.624 3.541 18.263l-0.117-0.327c12.836 33.615 30.057 62.618 51.363 88.088l-0.39-0.48 5.689 7.964c35.73 48.827 63.95 105.829 81.456 167.343l0.92 3.779c7.592-19.343 15.39-43.938 21.763-69.101l0.993-4.627c16.612-57.799 34.361-142.677 4.324-212.992z" />
<glyph unicode="&#xe90c;" glyph-name="71" d="M455.616 92.288c0 0-347.456 147.584-159.68 361.472 187.712 213.888 110.848 304.64 110.848 304.64s633.856-42.752 309.952-666.176h-79.424c0 0 97.792 128.384 0 189.504 0 0-116.16 79.488-42.816 143.616 0 0-241.792-31.104-98.176-333.184h-40.704z" />
<glyph unicode="&#xe90d;" glyph-name="00" d="M769.568 582.304c-1.648-114.8-48.272-163.648-48.272-163.648-4.4 255.712-256.816 529.824-256.816 529.824 83.408-169.776-285.344-383.232-285.344-689.36 0-192.032 236.864-333.088 355.584-308.88 513.056 104.56 234.848 632.064 234.848 632.064v0zM512 27.184c0 0-265.92 130.848-7.472 420.8 0 0 128.4-130.080 103.712-251.28 0 0 36.208-3.84 82.304 62.144 0 0.016 10.768-184.096-178.544-231.664v0z" />
<glyph unicode="&#xe90e;" glyph-name="81" d="M820.087 767.611l-0.019-0.024c-5.546 5.376-13.101 8.69-21.434 8.69-17.013 0-30.805-13.792-30.805-30.805 0-10.373 5.132-19.541 12.991-25.124l-0.020-0.024c2.403-2.28 4.779-4.59 7.123-6.931 69.382-69.129 112.522-164.881 112.522-270.94 0-105.868-43.14-201.619-112.522-270.939-69.449-69-165.137-111.945-270.972-111.945-105.803 0-201.525 42.945-270.874 111.945-69.225 69.32-112.109 165.071-112.109 270.939 0 106.059 42.883 201.811 112.109 270.94 69.348 69.382 165.072 112.328 270.874 112.328 38.453 0 75.566-5.672 110.567-16.22v0.001c3.33-1.232 6.931-1.908 10.689-1.908 17.013 0 30.805 13.792 30.805 30.805 0 14.881-10.551 27.297-24.58 30.175v0.001c-40.387 12.088-83.187 18.585-127.522 18.585-122.772 0-233.848-49.834-314.319-130.344-80.328-80.216-130.089-191.326-130.089-314.396 0-122.847 49.761-233.956 130.089-314.393 80.471-80.067 191.546-129.9 314.319-129.9 122.81 0 233.844 49.833 314.433 129.9 80.51 80.437 130.569 191.546 130.569 314.393 0 123.069-50.059 234.179-130.569 314.396zM752.128 475.648h-268.288v-61.44h268.288c16.966 0 30.72 13.754 30.72 30.72s-13.754 30.72-30.72 30.72zM545.28 414.208v328.704c0 16.966-13.754 30.72-30.72 30.72s-30.72-13.754-30.72-30.72v-328.704h61.44z" />
<glyph unicode="&#xe90f;" glyph-name="9" d="M836.836 393.313c0 2.687-19.755 28.658-25.074 47.464s-15.196 31.344-9.118 34.031c6.078 2.687 4.559-24.18 16.716-17.015s34.951 3.582 2.279 41.195l1.52 12.538s30.392 0 34.951 22.389-21.275 53.733-18.235 57.315c3.039 3.582 16.278-3.582 18.776-7.164s13.895-31.344 23.773-29.553c3.014 0.547 3.745 3.532 3.051 8.024 1.492-2.259 6.606-4.129 23.542 2.701 26.593 10.725-4.559 24.191-4.559 24.191l7.598 14.339-11.359 9.851-7.878-11.642s-2.038-34.926-7.878-36.739c0 0-0.004-0.026-0.006-0.031-2.514 10.518-10.645 26.963-16.948 41.248-3.072 6.962 4.611-2.021 9.118 3.582 9.986 12.416 26.593 18.807-8.358 42.986-15.956-2.687-25.074 21.493-12.157 19.702s35.271 7.221 40.59 6.325c5.319-0.896 3.479-18.863 3.479-18.863s15.706-21.493 17.476-25.075c1.77-3.582 0.76 22.389 0.76 22.389s-17.476 11.642-12.157 17.015c5.319 5.373 13.677 0.896 18.995 3.582s0 17.911 0 17.911-24.314 10.747-28.873 17.911-39.51 7.164-56.985 5.373c-17.476 8.060-77.5 8.955-77.5 8.955l-96.495 19.702s7.091-15.523 0-19.105c-7.091-3.582-23.301 7.164-26.34 0s-24.314-13.135-27.353-15.523c-3.039-2.388-11.144-13.135-11.144-13.135l-6.078 9.553-3.546-9.553-10.637-8.657-7.598 10.747h12.157s5.319 13.433-17.476 10.747c-20.515 8.956-35.711 3.582-42.549-1.791s-11.397-17.015-17.476-19.702-5.319-25.971 0-25.971h18.236l6.838 8.060s9.118 34.031 12.917 24.18c3.799-9.851-18.235-20.598 13.677-20.598-9.633-14.33-21.275-18.807-21.275-18.807h-19.755s-21.275-12.538-25.074-15.224c-3.799-2.687-18.235 15.224-18.235 15.224s4.559-23.284 4.559-34.926c0-11.642-18.995-15.224-18.995-15.224s3.039-25.075 3.799-37.613c-9.118-8.956-9.118-25.075-9.118-25.075l-13.677-8.060-6.078-49.255s-9.118-15.224 0-20.598c9.118-5.373 24.314-31.344 24.314-31.344s15.956-3.582 22.794 0 9.877 24.18 18.995 5.373 9.877-2.687 9.877-2.687 12.157-8.060 3.799-29.553c5.319-6.269 9.118-14.329 9.118-33.135v-38.509s24.314-56.42 19.755-69.853c-4.559-13.433 16.716 4.478 24.314 0s31.152 42.091 28.113 58.211c-3.039 16.12 18.995 22.389 20.515 30.449s-1.52 32.24-9.877 39.404c-8.358 7.164 51.667 58.211 41.789 72.539s-19.755-9.851-27.353-5.373c-7.598 4.478-5.319 13.433-5.319 13.433s45.054 3.582 52.539 22.389 15.083 47.464 40.157 2.687c25.074-44.777 34.951-62.688 41.029-56.42s-15.196 42.986 0 47.464c15.196 4.478 5.319 20.598 16.716 20.598s55.466-100.302 41.029-85.973c-14.436 14.329-20.515 8.060-20.515 8.060s19.755-19.702 34.951-51.046c9.877 0.896 31.152-0.896 31.152-0.896s-16.715 7.164-16.715 9.851zM872.434 404.232l5.431-10.92c0 0.001 0.734 8.163-5.431 10.92zM855.831 445.254s-13.676-14.329-18.235-17.911c-4.559-3.582 5.319-28.658 23.554-23.284 5.235 1.542 8.803 1.283 11.285 0.173l-7.486 15.051c0 0.001 4.558 25.971-9.118 25.971zM936.37 365.551l6.078 20.598 15.956-9.851s11.566 8.955-30.308 37.613c0 0-18.32-3.582-21.359 5.373s0-23.284 0-23.284l13.022-2.687 8.337-17.015s13.761-41.195 0-32.24c-13.761 8.956-15.281-1.791-13.761 8.956s-6.559 19.702-12.017 14.329-33.571-19.702-41.169-36.718-9.878 0-9.878 0l-9.877-13.433 8.358-10.747-8.358-9.851s-13.607-23.284-4.904-27.762c8.703-4.478 53.532 8.060 53.532 8.060l12.297-24.18s2.14-23.284 7.458-24.18 13.845 23.284 18.32 27.762c4.474 4.478 21.19 9.851 30.308 47.464s-22.035 61.793-22.035 61.793zM362.717 693.322c9.118-11.642 15.956-19.702 18.235-19.702s55.466 36.129 55.466 36.129 25.256 20.311 19.755 36.129c-19.755 30.73-90.417 6.55-104.853 2.072s9.118 9.851 9.118 9.851-37.182 1.791-47.083-5.373c-9.902-7.164-30.417-23.284-33.456-23.284s-17.476 8.060-17.476 8.060l-51.667-10.747s-18.995-9.652-32.672-10.647c-13.677-0.995-53.946 9.752-53.946 9.752s-38.75-39.404-43.309-39.404c-4.559 0-21.275-16.12-16.716-18.807s24.314 25.971 46.348 8.060 31.152-24.18 22.794-51.942-3.799-86.868 11.397-103.884c15.196-17.015 40.27-12.538 50.907-30.449s19.755-30.449 34.191-34.926-4.559-35.822-0.76-47.464 10.637-33.135 10.637-33.135 9.877-23.284 25.833-34.031c15.956-10.747-18.235-155.826 44.829-163.886-13.677 42.091-18.995 67.166-8.358 70.748s15.956 3.582 15.956 3.582l27.353 68.957s18.995 4.258 17.476 5.711c-1.52 1.453 4.559 38.171 6.078 40.857s11.397 16.12 6.838 23.284c-4.559 7.164-15.956 18.807-34.191 25.075-8.358 6.945-15.196 28.658-25.074 31.344s-24.314 21.593-24.314 21.593-12.917-6.269-26.593 0c-13.677 6.269-42.549-4.577-42.549-4.577s3.799 16.12-0.76 25.075c-4.559 8.956-11.397-1.791-11.397-1.791s5.319 17.911 2.279 27.762c-3.039 9.851-18.311-7.922-18.311-7.922s-15.121 4.34-13.601 29.415c1.52 25.075 54.706 10.747 54.706 10.747l3.039-20.598 6.838 35.512 25.289 26.574 50.692 46.276s14.436-25.971 20.515-15.224c-4.112 8.212-9.877 17.911-3.799 27.762-31.912 49.255 5.319 50.151 5.319 50.151l-21.275 26.866s-12.157 7.164-8.358 8.956c3.799 1.791 9.118 20.598 22.794 11.642s25.833-26.866 25.833-26.866-9.115-11.641 0.003-23.283z" />
<glyph unicode="&#xe910;" glyph-name="-2" d="M825.6 780.8l-358.4-358.4c-12.8-12.8-25.6-12.8-38.4 0l-6.4 6.4c-12.8 12.8-12.8 25.6 0 38.4l358.4 358.4c12.8 12.8 25.6 12.8 38.4 0l6.4-6.4c12.8-12.8 12.8-25.6 0-38.4zM467.2 473.6l358.4-358.4c12.8-12.8 12.8-25.6 0-38.4l-6.4-6.4c-12.8-12.8-25.6-12.8-38.4 0l-358.4 358.4c-12.8 12.8-12.8 25.6 0 38.4l6.4 6.4c12.8 12.8 25.6 12.8 38.4 0zM627.2 780.8l-358.4-358.4c-12.8-12.8-25.6-12.8-38.4 0l-6.4 6.4c-12.8 12.8-12.8 25.6 0 38.4l358.4 358.4c12.8 12.8 25.6 12.8 38.4 0l6.4-6.4c12.8-12.8 12.8-25.6 0-38.4zM268.8 473.6l358.4-358.4c12.8-12.8 12.8-25.6 0-38.4l-6.4-6.4c-12.8-12.8-25.6-12.8-38.4 0l-358.4 358.4c-12.8 12.8-12.8 25.6 0 38.4l6.4 6.4c12.8 12.8 25.6 12.8 38.4 0z" />
<glyph unicode="&#xe911;" glyph-name="10" horiz-adv-x="1261" d="M1260.308 960v-1024h-1260.308v1024h1260.308zM55.138 900.267v-904.533h1150.031v904.533h-1150.031zM252.062 570.092c65.255 0 118.154 52.899 118.154 118.154s-52.899 118.154-118.154 118.154c-65.254 0-118.154-52.899-118.154-118.154s52.9-118.154 118.154-118.154zM133.908 89.6h984.615v307.2l-281.319 307.884-421.282-390.043-141.355 153.047-140.66-153.047v-225.042z" />
<glyph unicode="&#xe912;" glyph-name="11" horiz-adv-x="1260" d="M1243.707 522.023v-0.197c-6.464-19.542-24.566-33.394-45.903-33.394-18.652 0-34.832 10.585-42.861 26.075l-0.127 0.269c-3.325 6.386-5.275 13.945-5.275 21.96 0 5.334 0.864 10.467 2.46 15.266l-0.098-0.341-0.080 0.040c7.336 21.901 11.568 47.119 11.568 73.326 0 61.342-23.19 117.268-61.28 159.49l0.187-0.211c-43.52 48.305-106.289 78.539-176.12 78.539-17.553 0-34.659-1.91-51.123-5.534l1.569 0.29c-3.026-0.675-6.502-1.061-10.067-1.061-23.124 0-42.451 16.254-47.179 37.96l-0.058 0.319c-0.673 3.026-1.058 6.502-1.058 10.068 0 23.128 16.215 42.469 37.897 47.276l0.322 0.060c112.64 24.024 234.752-11.028 317.479-103.050 82.747-91.924 105.058-217.226 69.75-327.149zM909.53 702.838v0.040c-2.621-0.591-5.632-0.929-8.721-0.929-19.849 0-36.436 13.971-40.461 32.617l-0.049 0.272c-0.589 2.625-0.927 5.641-0.927 8.735 0 19.88 13.935 36.506 32.571 40.642l0.277 0.052c10.265 2.315 22.054 3.641 34.153 3.641 47.772 0 90.714-20.679 120.363-53.574l0.128-0.145c40.369-44.84 51.14-105.846 33.91-159.409-5.543-16.87-21.153-28.837-39.557-28.837-4.547 0-8.924 0.731-13.019 2.081l0.294-0.084c-16.813 5.606-28.72 21.201-28.72 39.578 0 4.598 0.745 9.021 2.122 13.156l-0.085-0.294h-0.079c2.473 7.359 3.899 15.834 3.899 24.642 0 20.539-7.759 39.267-20.505 53.411l0.063-0.071c-14.617 16.137-35.65 26.232-59.040 26.232-5.886 0-11.622-0.639-17.144-1.852l0.527 0.097zM946.433 466.767c72.212-22.45 152.714-76.8 152.714-172.544 0-158.563-227.998-358.223-570.604-358.223-261.377 0.040-528.543 127.094-528.543 336.010 0 109.292 69.022 235.579 187.865 354.796 158.66 159.114 343.71 231.582 413.321 161.713 30.72-30.72 33.674-84.046 13.943-147.653-10.3-32.020 29.991-14.296 29.991-14.375 128.217 53.878 240.187 57.068 281.108-1.575 21.74-31.213 19.672-75.008-0.394-125.755-9.315-23.375 2.836-27.018 20.598-32.375zM529.231 10.929c208.58 20.677 366.67 148.717 353.142 286.13-13.529 137.255-193.536 231.857-402.117 211.16-208.542-20.677-366.73-148.795-353.142-286.050 13.528-137.335 193.575-231.917 402.117-211.24zM550.065 402.491c102.735-26.604 155.136-123.805 113.152-218.151-42.555-96.591-164.962-148.027-268.859-114.413-100.273 32.434-142.71 131.722-98.816 221.224 43.107 87.65 155.294 137.255 254.523 111.34zM474.29 174.1c19.81 32.61 9.393 69.829-23.296 83.83-32.295 13.528-74.043-0.394-93.971-31.764-20.185-31.448-10.693-68.982 21.385-83.594 32.532-14.907 75.717-0.768 95.902 31.508z" />
<glyph unicode="&#xe913;" glyph-name="12" horiz-adv-x="1280" d="M858.149 650.247c14.58 0 28.922-1.1 43.343-2.671-38.827 179.269-232.088 312.424-452.766 312.424-246.668 0-448.725-166.621-448.725-378.334 0-122.157 67.194-222.475 179.554-300.405l-44.849-133.784 156.891 77.929c56.101-10.92 101.108-22.232 157.129-22.232 14.104 0 28.050 0.628 41.838 1.65-8.716 29.773-13.867 60.882-13.867 93.327 0.079 194.352 168.381 352.096 381.452 352.096v0zM616.948 770.833c33.914 0 56.18-22.075 56.18-55.54 0-33.308-22.266-55.619-56.18-55.619-33.518 0-67.273 22.31-67.273 55.619 0 33.544 33.676 55.54 67.273 55.54v0zM302.927 659.674c-33.676 0-67.59 22.31-67.59 55.619 0 33.466 33.914 55.54 67.59 55.54s56.021-21.996 56.021-55.54c0-33.308-22.345-55.619-56.021-55.619v0zM1267.81 303.493c0 177.855-179.554 322.794-381.214 322.794-213.547 0-381.611-145.018-381.611-322.794 0-178.326 168.143-322.794 381.611-322.794 44.69 0 89.777 11.077 134.626 22.232l123.057-66.931-33.755 111.238c90.094 67.088 157.288 155.937 157.288 256.255v0zM762.825 359.19c-22.266 0-44.849 21.996-44.849 44.464 0 22.153 22.583 44.464 44.849 44.464 34.072 0 56.18-22.31 56.18-44.464 0-22.468-22.107-44.464-56.18-44.464v0zM1009.652 359.19c-22.107 0-44.611 21.996-44.611 44.464 0 22.153 22.424 44.464 44.611 44.464 33.755 0 56.18-22.31 56.18-44.464 0-22.468-22.424-44.464-56.18-44.464v0z" />
<glyph unicode="&#xe914;" glyph-name="16" horiz-adv-x="1025" d="M316.915 639.889c-19.899 0-39.991-13.179-39.991-33.147 0-19.836 20.030-33.142 39.991-33.142s33.142 13.375 33.142 33.21c-0.001 19.962-13.245 33.079-33.142 33.079v0zM502.466 573.665c20.030 0 33.21 13.311 33.21 33.142 0 19.968-13.18 33.147-33.21 33.147-19.836 0-39.733-13.116-39.733-33.147 0-19.831 19.96-33.142 39.733-33.142v0zM588.659 447.487c-13.18 0-26.492-13.18-26.492-26.428 0-13.37 13.311-26.485 26.492-26.485 20.087 0 33.208 13.116 33.208 26.485 0 13.248-13.058 26.428-33.208 26.428v0zM734.604 447.487c-13.116 0-26.427-13.243-26.427-26.487 0-13.375 13.311-26.491 26.427-26.491 19.962 0 33.205 13.116 33.205 26.491-0.063 13.306-13.306 26.487-33.205 26.487v0zM827.325 958.977h-629.624c-108.57 0-196.678-88.114-196.678-196.678v-629.618c0-108.576 88.044-196.68 196.678-196.68h629.624c96.745 0 177.244 69.949 193.679 161.958l3.064 160.684v503.657c0 108.57-88.109 196.678-196.743 196.678v0zM403.1 301.604c-33.142 0-59.695 6.656-92.842 13.243l-92.71-46.453 26.554 79.726c-66.414 46.452-106.154 106.217-106.154 179.033 0 126.173 119.397 225.477 265.215 225.477 130.402 0 244.548-79.404 267.58-186.195-8.572 0.963-17.081 1.538-25.59 1.538-125.989 0-225.356-93.996-225.419-209.802 0-19.394 3.007-37.948 8.193-55.668-8.257-0.517-16.508-0.895-24.827-0.895v-0.005zM794.105 208.635l20.030-66.292-72.749 39.934c-26.491-6.656-53.171-13.248-79.531-13.248-126.178 0-225.481 86.123-225.481 192.335 0 106.022 99.303 192.404 225.481 192.404 119.139 0 225.287-86.382 225.287-192.404-0.064-59.76-39.734-112.742-93.038-152.729v0z" />
<glyph unicode="&#xe915;" glyph-name="wj" d="M596 960l296-296v-655.2c0-40-32.8-72.8-73.6-72.8h-588.8c-40.8 0-73.6 32.8-73.6 72.8v878.4c0 40 32.8 72.8 73.6 72.8h294.4zM300 888c-40.8 0-72-32-72-72v-736c0-40 31.2-72 72-72h448c40.8 0 72 32 72 72v512h-224c-40.8 0-72 32-72 72v224h-224zM596 840v-176h168l-168 176zM668 488c0-22.4-16.8-40-36.8-40h-294.4c-20 0-36.8 17.6-36.8 40s16.8 40 36.8 40h294.4c20 0 36.8-18.4 36.8-40zM337.6 376h149.6c20.8 0 37.6-17.6 37.6-40s-16.8-40-37.6-40h-149.6c-20.8 0-37.6 17.6-37.6 40s16.8 40 37.6 40zM336.8 224h294.4c20 0 36.8-17.6 36.8-40s-16.8-40-36.8-40h-294.4c-20 0-36.8 17.6-36.8 40s16 40 36.8 40z" />
<glyph unicode="&#xe916;" glyph-name="-11" horiz-adv-x="1478" d="M487.257 182.483l-198.662 21.175c76.738-141.456 214.026-241.69 376.148-266.349l2.856-0.357c-72.904 68.82-133.32 149.911-178.127 240.125l-2.215 4.93zM664.506 954.29c-160.672-25.34-294.589-121.944-370.295-255.816l-1.334-2.564 194.617 19.272c46.080 92.916 105.385 172.059 176.554 238.684l0.458 0.424zM737.546 712.565l3.094 247.435c-84.698-67.236-154.818-148.661-207.693-241.208l-2.15-4.086zM214.126 376.625l-131.568 260.758-82.558 0.952v-356.878h71.375v261.71l142.751-261.71h70.9l0.476 356.878h-71.376v-261.71zM618.587 566.959v71.376h-237.917v-356.878h237.918v71.376h-166.543v95.167h118.959v47.584h-118.96v71.375h166.543zM785.844 281.457h70.662l62.572 274.32 56.387-274.32h71.375l95.167 356.878h-71.375l-58.29-261.473-60.67 261.473h-71.375l-54.483-261.71-64.476 261.71h-71.375l95.88-356.878zM767.524 960l-2.617-247.435 195.33-1.903c-49.672 97.533-114.27 180.216-191.809 248.558l-0.903 0.78zM1002.825 709.71l182.008-1.903c-81.043 134.918-218.743 228.696-379.347 248.608l-2.512 0.254c85.863-63.732 153.859-146.83 198.239-243.060l1.612-3.899zM805.83-63.048c164.945 20.811 303.744 117.084 382.442 252.588l1.319 2.46-197.71-14.989c-49.226-93.32-111.401-172.728-185.298-239.39l-0.754-0.67zM767.050 179.39l-2.618-236.015c73.655 65.584 135.014 143.034 181.491 229.66l2.182 4.452zM947.867 177.487v0zM1451.302 450.855c-30.338 19.346-66.184 33.028-104.655 38.607l-1.456 0.173c-27.113 4.989-51.055 12.077-73.87 21.359l2.494-0.897c-9.832 3.659-16.739 12.899-16.892 23.772v0.019c-0.008 0.284-0.012 0.618-0.012 0.953 0 13.134 6.651 24.714 16.77 31.556l0.134 0.086c11.521 6.98 25.443 11.111 40.33 11.111 1.799 0 3.584-0.060 5.352-0.179l-0.24 0.013c1.159 0.050 2.518 0.078 3.884 0.078 18.73 0 36.212-5.344 51.004-14.59l-0.405 0.236c12.908-8.137 21.556-22.011 22.359-37.953l0.005-0.113h74.23c-1.951 31.842-17.636 59.666-41.152 77.855l-0.245 0.182c-25.985 21.761-59.723 35.036-96.557 35.212h-0.038c-1.719 0.058-3.74 0.092-5.768 0.092-37.992 0-73.254-11.686-102.389-31.66l0.618 0.4c-23.871-16.817-39.274-44.263-39.274-75.307 0-0.625 0.006-1.249 0.019-1.871l-0.001 0.093c-0.212-2.086-0.333-4.509-0.333-6.959 0-23.316 10.96-44.071 28.010-57.396l0.161-0.121c33.461-18.899 72.486-32.667 113.955-39.016l1.911-0.241c23.005-3.885 43.619-10.593 62.756-19.87l-1.373 0.6c8.806-5.385 14.594-14.949 14.594-25.864 0-0.778-0.029-1.549-0.087-2.312l0.006 0.102c-0.595-13.371-8.987-24.642-20.714-29.422l-0.223-0.080c-14.656-6.61-31.772-10.461-49.788-10.461-2.656 0-5.293 0.084-7.907 0.249l0.357-0.018c-1.436-0.079-3.116-0.125-4.807-0.125-18.729 0-36.161 5.549-50.744 15.092l0.354-0.218c-12.615 9.376-20.699 24.234-20.699 40.979 0 0.064 0 0.127 0 0.19v-0.010h-73.517c-0.001-0.181-0.002-0.394-0.002-0.607 0-33.817 15.926-63.915 40.688-83.201l0.236-0.177c27.742-19.204 62.109-30.678 99.156-30.678 3.116 0 6.213 0.081 9.29 0.242l-0.43-0.018c3.63-0.247 7.869-0.388 12.141-0.388 36.104 0 69.86 10.052 98.622 27.511l-0.845-0.476c24.987 15.317 41.404 42.476 41.404 73.47 0 0.351-0.002 0.702-0.006 1.052l0.001-0.053c0.335 2.748 0.526 5.929 0.526 9.156 0 23.775-10.379 45.126-26.854 59.769l-0.082 0.071zM737.547-56.149l2.855 236.015-209.843 2.141c55.309-93.376 124.295-172.294 205.257-236.823l1.731-1.333z" />
<glyph unicode="&#xe917;" glyph-name="14" d="M928 960h-704c-53.019 0-96-42.981-96-96v0-64h-32c-53.019 0-96-42.981-96-96v0-640c0-70.692 57.308-128 128-128v0h768c70.692 0 128 57.308 128 128v0 800c0 53.019-42.981 96-96 96v0zM960 64c0-35.264-28.736-64-64-64h-768c-35.296 0-64 28.736-64 64v640c0 17.673 14.327 32 32 32v0h32v-640c0-17.673 14.327-32 32-32s32 14.327 32 32v0 768c0 17.673 14.327 32 32 32v0h704c17.632 0 32-14.336 32-32v-800zM623.936 543.84h256c8.837 0 16 7.163 16 16s-7.163 16-16 16v0h-256c-8.837 0-16-7.163-16-16s7.163-16 16-16v0zM623.936 639.84h256c8.837 0 16 7.163 16 16s-7.163 16-16 16v0h-256c-8.837 0-16-7.163-16-16s7.163-16 16-16v0zM623.936 735.84h256c8.837 0 16 7.163 16 16s-7.163 16-16 16v0h-256c-8.837 0-16-7.163-16-16s7.163-16 16-16v0zM528 95.872h-256c-8.837 0-16-7.163-16-16s7.163-16 16-16v0h256c8.837 0 16 7.163 16 16s-7.163 16-16 16v0zM528 191.872h-256c-8.837 0-16-7.163-16-16s7.163-16 16-16v0h256c8.837 0 16 7.163 16 16s-7.163 16-16 16v0zM528 287.872h-256c-8.837 0-16-7.163-16-16s7.163-16 16-16v0h256c8.837 0 16 7.163 16 16s-7.163 16-16 16v0zM880 95.872h-256c-8.837 0-16-7.163-16-16s7.163-16 16-16v0h256c8.837 0 16 7.163 16 16s-7.163 16-16 16v0zM880 191.872h-256c-8.837 0-16-7.163-16-16s7.163-16 16-16v0h256c8.837 0 16 7.163 16 16s-7.163 16-16 16v0zM880 287.872h-256c-8.837 0-16-7.163-16-16s7.163-16 16-16v0h256c8.837 0 16 7.163 16 16s-7.163 16-16 16v0zM880 479.872h-608c-8.837 0-16-7.163-16-16s7.163-16 16-16h608c8.837 0 16 7.163 16 16s-7.163 16-16 16v0zM880 383.872h-608c-8.837 0-16-7.163-16-16s7.163-16 16-16v0h608c8.837 0 16 7.163 16 16s-7.163 16-16 16v0zM288 544h224c17.673 0 32 14.327 32 32v0 223.872c0 17.673-14.327 32-32 32v0h-224c-17.673 0-32-14.327-32-32v0-223.872c0-17.673 14.327-32 32-32v0zM320 768h160v-160h-160v160z" />
<glyph unicode="&#xe918;" glyph-name="13" d="M828.823 112.163h63.619v64.263h-63.619v-64.263zM510.741 47.909h127.23v-64.268h-127.23v64.268zM1008.606 806.126l-123.609 106.174c-9.098 7.766-21.691 9.837-32.765 5.203l-95.677-39.911-77.1-48.831c-10.186-6.556-15.85-18.329-14.575-30.402l9.609-94.608-89.001-61.763-104.905-12.524-83.851 46.016-52.098 102.629c-7.891 15.553-26.654 21.852-42.239 14.204l-113.053-55.718c-10.939-5.398-17.875-16.587-17.875-28.87v-42.147l-37.728-37.149h-42.878c-8.204 0-16.159-3.21-22.074-9.001l-57.257-55.716c-12.974-12.658-12.974-33.612 0-46.27l50.198-48.849 28.818-137.906c1.524-7.276 5.474-13.829 11.262-18.449l104.391-84.514c5.661-4.56 12.665-7.063 19.914-7.063h115.024v-69.921c0-17.743 14.246-32.14 31.802-32.14h128.062l57.959-39.851c10.052-6.931 23.090-7.439 33.653-1.349l78.75 45.443 108.661 41.321c5.788 2.189 10.746 6.103 14.444 11.113l68.384 94.862c3.947 5.534 6.109 12.148 6.109 18.899v93.573c0 8.684-3.498 16.976-9.605 23.007l-39.95 39.204 50.571 33.67c4.708 3.091 8.463 7.394 11.010 12.465l35.498 71.541 89.765 63.11c8.522 6.029 13.615 15.852 13.615 26.353v129.687c0 9.431-4.138 18.385-11.262 24.475v0zM956.243 668.805l-82.762-58.314c-4.319-3.075-7.884-7.185-10.238-11.954l-35.249-71.060-76.719-50.845c-16.992-11.306-19.281-35.531-4.709-49.867l58.716-57.712v-69.532l-56.685-78.682-104.261-40.091-65.907-37.659-49.687 34.18c-5.28 3.675-11.513 5.593-17.939 5.593h-106.114v69.923c0 17.743-14.249 32.14-31.81 32.14h-135.626l-86.841 70.252-28.431 136.362c-1.342 6.315-4.454 12.090-9.103 16.528l-33.395 32.577 29.198 23.591h38.107c8.271 0 16.286 3.267 22.209 9.12l56.549 55.716c6.045 5.985 9.545 14.266 9.545 22.949l-5.284 10.079 72.521 58.554 42.309-83.347c2.926-5.728 7.505-10.467 13.105-13.557l101.405-55.733c5.789-3.089 12.404-4.364 18.961-3.583l122.647 14.695c5.090 0.646 9.989 2.462 14.249 5.414l111.073 76.985c9.613 6.691 14.826 18.058 13.617 29.759l-9.539 93.766 55.601 35.666 72.778 29.952 97.711-83.93v-97.936h-0.001z" />
<glyph unicode="&#xe919;" glyph-name="fh" d="M945.152 452.096l-302.592 303.104c-6.761 7.346-16.422 11.933-27.155 11.933-20.359 0-36.864-16.505-36.864-36.864 0-0.415 0.007-0.829 0.020-1.241l-0.002 0.060v-166.912h-215.552c-0.795 0.062-1.722 0.097-2.657 0.097-20.077 0-36.352-16.275-36.352-36.352 0-0.935 0.035-1.862 0.105-2.779l-0.007 0.122v-201.728c-0.132-1.381-0.208-2.986-0.208-4.608s0.075-3.227 0.223-4.811l-0.015 0.203c3.428-17.097 18.321-29.797 36.18-29.797 0.961 0 1.914 0.037 2.857 0.109l-0.125-0.008h215.552v-161.28c-0.046-0.688-0.073-1.491-0.073-2.301 0-15.505 9.707-28.743 23.376-33.968l0.249-0.084c3.928-1.583 8.483-2.502 13.253-2.502 10.803 0 20.505 4.712 27.163 12.193l0.032 0.037 303.104 302.080c7.649 6.699 12.453 16.485 12.453 27.392s-4.804 20.693-12.411 27.356l-0.042 0.036zM447.488 109.568h-211.456c-48.636 0-88.064 39.428-88.064 88.064v0 455.168c0.578 48.194 39.782 87.040 88.058 87.040 0.002 0 0.004 0 0.006 0h211.456c14.138 0 25.6 11.462 25.6 25.6s-11.462 25.6-25.6 25.6h-211.456c-0.001 0-0.002 0-0.004 0-76.553 0-138.68-61.768-139.26-138.185v-454.199c0-76.913 62.351-139.264 139.264-139.264v0h211.456c14.138 0 25.6 11.462 25.6 25.6s-11.462 25.6-25.6 25.6v0z" />
<glyph unicode="&#xe91a;" glyph-name="cy" horiz-adv-x="1025" d="M816.096-32c-114.944 0-208.128 93.312-208.128 208.384s93.184 208.384 208.128 208.384c114.944 0 208.128-93.28 208.128-208.384 0-115.072-93.184-208.384-208.128-208.384zM925.248 210.496v0.288l-86.944 66.176c-2.048 2.144-4.896 3.488-8.096 3.488-6.176 0-11.168-4.992-11.168-11.168v-33.504c0 0-111.808 10.208-111.808-145.184 0 0 29.984 78.176 111.808 78.176v-33.504c0-6.176 4.992-11.168 11.168-11.168v-2.656l5.376 4.096c1.024 0.544 1.92 1.248 2.72 2.080l86.944 66.176v0.288c2.24 2.048 3.68 4.96 3.68 8.224 0 3.232-1.44 6.144-3.68 8.192zM0 736.448v110.528c0 27.104 21.504 49.056 48 49.056h864.16c26.528 0 48-21.984 48-49.056l-0.192-110.528h-959.968zM960.128 406.848c-41.824 26.208-91.104 41.6-144.096 41.6-46.272 0-89.792-11.616-127.936-32h-144.416c-17.472 0-31.648-14.176-31.648-31.648v-0.704c0-17.472 14.176-31.648 31.648-31.648h65.184c-40.352-47.456-64.832-108.832-64.832-176 0-5.536 0.512-10.944 0.832-16.416h-496.832c-26.528 0-48 21.984-48 49.056v399.36h960l0.096-201.6zM244.128 451.904c-19.808 20.288-35.968 35.872-48.416 46.752 0.736 1.44 1.824 3.616 3.296 6.528 0.736 2.176 1.472 3.968 2.208 5.44l-29.728 2.176c-16.896-35.52-42.208-64.864-75.936-88.064 4.416-8 8.416-16.672 12.096-26.080 5.12 3.616 8.416 6.144 9.888 7.616 2.208 1.44 3.68 2.528 4.416 3.264v-111.968c-0.736-26.080 12.48-38.752 39.616-38.048h46.208c23.488-0.704 37.408 7.264 41.824 23.904 0.736 1.44 1.472 3.968 2.208 7.616 2.912 10.144 4.768 18.112 5.504 23.904-8.8 2.176-15.424 4.352-19.808 6.528-3.68 0.704-6.24 1.44-7.712 2.176-1.472-10.88-2.592-17.376-3.296-19.552-0.736-2.912-1.088-5.088-1.088-6.528-2.208-9.44-9.536-14.144-22.016-14.144h-35.2c-13.216 0-19.456 6.144-18.72 18.496v92.384h60.544c0-3.648-0.384-9.44-1.088-17.408 0-5.088 0-8.704 0-10.88-1.472-12.32-7.712-18.112-18.72-17.408-7.36 0-16.16 0.352-26.4 1.088 0-1.472 0.352-3.648 1.088-6.528 2.208-9.44 3.648-15.936 4.416-19.552l30.816 1.088c22.016 0.704 33.376 12.32 34.112 34.784 1.472 20.288 2.208 39.84 2.208 58.688l2.208-1.088 19.808 20.64c-2.944 2.912-7.712 7.648-14.336 14.176zM292.576 482.336h-27.52v-164.128h27.52v164.128zM352 511.68h-28.608v-210.88c0.736-11.616-5.152-17.408-17.6-17.408-11.008 0-22.4 0-34.112 0 2.208-9.408 4.032-18.464 5.504-27.168 13.216 0 26.432 0 39.616 0 24.928 0.736 36.672 13.056 35.232 36.96v218.496zM896 512.8c0 17.472-14.176 31.648-31.648 31.648h-320.704c-17.472 0-31.648-14.176-31.648-31.648v-0.704c0-17.472 14.176-31.648 31.648-31.648h320.704c17.472 0 31.648 14.176 31.648 31.648v0.704zM182.496 476.896c6.592-6.528 15.776-15.936 27.52-28.256s20.544-22.112 26.4-29.344h-103.424c19.808 17.376 36.32 36.576 49.504 57.6z" />
<glyph unicode="&#xe91b;" glyph-name="fl" d="M352.88 905.168h-264.368c-48.513-0.073-87.822-39.376-87.904-87.88v-264.376c0.082-48.512 39.391-87.815 87.897-87.888h264.375c48.513 0.073 87.822 39.376 87.904 87.88v264.376c-0.073 48.519-39.385 87.831-87.897 87.904h-0.007zM998 747.296l-186.96 186.88c-15.922 15.878-37.894 25.696-62.16 25.696s-46.238-9.818-62.162-25.698l-186.91-186.894c-15.855-15.805-25.664-37.665-25.664-61.817 0-0.053 0-0.107 0-0.16v0.008c-0.001-0.154-0.002-0.336-0.002-0.518 0-24.152 9.81-46.013 25.663-61.816l186.946-187.026c15.905-15.89 37.869-25.717 62.128-25.717 24.283 0 46.267 9.846 62.176 25.765l186.944 186.928c15.897 15.913 25.729 37.888 25.729 62.16s-9.832 46.247-25.73 62.161l0.001-0.001zM352.88 376.96h-264.368c-48.519-0.073-87.831-39.385-87.904-87.897v-264.375c0.073-48.519 39.385-87.831 87.897-87.904h264.375c48.519 0.073 87.831 39.385 87.904 87.897v264.375c-0.073 48.519-39.385 87.831-87.897 87.904h-0.007zM881.088 376.96h-264.368c-48.519-0.073-87.831-39.385-87.904-87.897v-264.375c0.073-48.519 39.385-87.831 87.897-87.904h264.375c48.519 0.073 87.831 39.385 87.904 87.897v264.375c-0.073 48.519-39.385 87.831-87.897 87.904h-0.007z" />
<glyph unicode="&#xe91c;" glyph-name="gj" d="M826.92 102.603h-629.84c-33.667 0-60.953 27.287-60.953 60.953v446.984c0 33.666 27.286 60.952 60.952 60.952h121.905v60.952c0 33.666 27.286 60.953 60.953 60.953h243.809c33.666 0 60.952-27.287 60.952-60.953v-60.952h142.223c33.666 0 60.952-27.286 60.952-60.952v-446.984c0-33.666-27.286-60.953-60.952-60.953zM644.064 712.127c0 22.43-18.204 40.635-40.634 40.635h-203.176c-22.43 0-40.635-18.205-40.635-40.635v-40.635h284.444v40.635zM847.239 590.222c0 22.43-18.204 40.635-40.635 40.635h-589.207c-22.43 0-40.635-18.204-40.635-40.635v-162.54h304.762v50.794c0 16.823 13.653 30.476 30.476 30.476s30.476-13.653 30.476-30.476v-50.793h304.762v162.54zM847.239 387.048h-304.763v-10.16c0-16.842-13.653-30.475-30.476-30.475s-30.476 13.633-30.476 30.476v10.159h-304.762v-203.175c0-22.43 18.204-40.635 40.635-40.635h589.206c22.43 0 40.635 18.205 40.635 40.635v203.175z" />
<glyph unicode="&#xe91d;" glyph-name="rl" d="M819.058 314.046h-62.937v-63h62.937v63zM819.058 188.17h-62.937v-63h62.937v63zM630.244 439.922h-62.938v-63.001h62.938v63.001zM630.244 880.611h-251.75v-62.938h251.75v62.938zM284.334 755.564c17.271 0 31.161 18.748 31.161 41.857v104.331c0 23.048-13.891 41.795-31.161 41.795-17.147 0-31.099-18.747-31.099-41.795v-104.332c0-23.11 13.952-41.856 31.099-41.856zM724.902 755.564c17.577 0 31.832 18.748 31.832 41.857v104.331c0 23.048-14.255 41.795-31.832 41.795-17.582 0-31.838-18.747-31.838-41.795v-104.332c0-23.11 14.256-41.856 31.838-41.856zM630.244 314.046h-62.938v-63h62.938v63zM819.058 439.922h-62.937v-63.001h62.937v63.001zM252.618 188.17h-62.939v-63.059h62.939v63.059zM252.618 314.046h-62.939v-63h62.939v63zM944.933 880.611h-125.875v-62.938h125.876v-188.815h-881.129v188.815h125.875v62.938h-125.875c-65.271 0-62.938-64.567-62.938-62.938v-818.193c0-61.278 60.604-62.938 62.938-62.938h881.129c57.406 0 62.937 60.601 62.937 62.938v818.193c-0.001 4.27-1.658 62.938-62.938 62.938zM944.933-0.52h-881.128v566.439h881.129v-566.439zM630.244 188.17h-62.938v-63.059h62.938v63.059zM441.434 314.046h-62.939v-63h62.939v63zM441.434 439.922h-62.939v-63.001h62.939v63.001zM441.434 188.17h-62.939v-63.059h62.939v63.059zM252.618 439.922h-62.939v-63.001h62.939v63.001z" />
<glyph unicode="&#xe91e;" glyph-name="tb" d="M304.128 367.616v-158.208c0-14.138 11.462-25.6 25.6-25.6s25.6 11.462 25.6 25.6v158.208c0 14.138-11.462 25.6-25.6 25.6s-25.6-11.462-25.6-25.6v0zM266.752 520.704l209.408 145.92 124.416-135.68c1.904-2.002 4.097-3.705 6.517-5.049l0.139-0.071h18.944c2.923 0.854 5.475 2.077 7.774 3.644l-0.094-0.060 219.648 153.6c7.229 5.083 11.895 13.389 11.895 22.784 0 15.336-12.432 27.767-27.767 27.767-5.94 0-11.445-1.865-15.96-5.042l0.088 0.059-204.8-141.824-115.712 134.656c-5.045 5.282-12.142 8.566-20.007 8.566-5.927 0-11.419-1.865-15.92-5.040l0.087 0.058c-2.721-0.729-5.106-1.781-7.28-3.137l0.112 0.065-223.232-153.6c-7.229-5.083-11.895-13.389-11.895-22.784 0-15.336 12.432-27.767 27.767-27.767 5.94 0 11.445 1.865 15.96 5.042l-0.088-0.059zM457.216 475.136v-265.728c0-14.138 11.462-25.6 25.6-25.6s25.6 11.462 25.6 25.6v0 265.728c0 14.138-11.462 25.6-25.6 25.6s-25.6-11.462-25.6-25.6v0zM761.344 475.136v-265.728c0-14.138 11.462-25.6 25.6-25.6s25.6 11.462 25.6 25.6v265.728c0 14.138-11.462 25.6-25.6 25.6s-25.6-11.462-25.6-25.6v0zM609.792 367.616v-158.208c0-14.138 11.462-25.6 25.6-25.6s25.6 11.462 25.6 25.6v158.208c0 14.138-11.462 25.6-25.6 25.6s-25.6-11.462-25.6-25.6v0zM897.536 108.544h-608.768c-56.554 0-102.4 45.846-102.4 102.4v0 569.856c0 14.138-11.462 25.6-25.6 25.6s-25.6-11.462-25.6-25.6v0-569.856c0-84.831 68.769-153.6 153.6-153.6v0h608.768c14.138 0 25.6 11.462 25.6 25.6s-11.462 25.6-25.6 25.6v0z" />
<glyph unicode="&#xe91f;" glyph-name="yl" d="M755.871 717.115h-47.153v34.556c0 54.628-44.721 99.089-99.67 99.089h-194.861c-54.948 0-99.651-44.723-99.651-99.692v-33.953h-47.153c-76.848 0-139.351-62.523-139.351-139.37v-395.249c0-76.827 62.503-139.35 139.351-139.35h488.487c76.848 0 139.352 62.523 139.352 139.35v395.249c0 76.848-62.504 139.37-139.352 139.37zM373.141 751.069c0 22.662 18.424 41.066 41.046 41.066h194.861c23.023 0 41.066-17.759 41.066-40.464v-34.556h-276.973v33.953zM836.616 182.497c0-44.52-36.223-80.743-80.745-80.743h-488.487c-44.522 0-80.745 36.223-80.745 80.743v395.248c0 44.521 36.223 80.745 80.745 80.745h488.487c44.522 0 80.745-36.224 80.745-80.745v-395.248zM637.879 445.949h-60.433v60.453c0 17.721-14.506 32.226-32.227 32.226h-67.183c-17.72 0-32.226-14.504-32.226-32.226v-60.453h-60.432c-17.74 0-32.246-14.505-32.246-32.245v-67.143c0-17.74 14.505-32.246 32.246-32.246h60.432v-60.454c0-17.719 14.506-32.225 32.226-32.225h67.183c17.721 0 32.227 14.506 32.227 32.225v60.454h60.433c17.74 0 32.264 14.506 32.264 32.246v67.143c0 17.74-14.525 32.245-32.264 32.245z" />
<glyph unicode="&#xe920;" glyph-name="yl1" horiz-adv-x="1039" d="M0.57 20.663v700.563h252.191v154.112h518.435v-154.112h252.191v-700.563h-1022.816zM715.141 819.305h-406.325v-98.079h406.325v98.079zM967.354 665.171h-910.752v-588.475h910.752v588.475zM476.958 567.091h56.032v-182.151h182.151v-56.032h-182.151v-168.143h-56.032v168.143h-168.143v56.032h168.143v182.151z" />
<glyph unicode="&#xe921;" glyph-name="zf" d="M930.38 523.967l-326.114 338.407c-24.27 25.19-56.704 39.051-91.381 39.051-34.655 0-67.111-13.862-91.382-39.051l-34.14-35.417c-5.204 5.024-12.247 8.165-20.053 8.165h-176.257c-15.971 0-28.912-12.943-28.912-28.891v-212.998l-66.73-69.266c-36.876-38.244-31.963-68.457-25.75-83.060 6.19-14.602 24.539-39.096 77.676-39.096h18.011v-376.405c0-15.947 12.943-28.889 28.89-28.889h637.292c15.97 0 28.89 12.942 28.89 28.889v376.404h18.012c53.138 0 71.485 24.495 77.7 39.096 6.214 14.603 11.104 44.839-25.75 83.060zM219.944 777.341h118.477v-1.189l-118.477-122.94v124.129zM613.867 54.298h-86.313v204.406h86.313v-204.406zM802.64 54.298h-130.993v233.298c0 15.948-12.92 28.889-28.889 28.889h-144.117c-15.947 0-28.912-12.941-28.912-28.889v-233.298h-246.599v347.513h579.512v-347.513zM878.432 459.593h-731.096c-13.75 0-21.152 2.535-23.978 4.15 0.807 3.118 4.106 10.228 13.66 20.143l326.115 338.385c26.513 27.567 72.967 27.567 99.5 0l326.139-338.385c9.555-9.915 12.829-17.025 13.637-20.143-2.802-1.615-10.203-4.15-23.977-4.15z" />
<glyph unicode="&#xe922;" glyph-name="cj" d="M913.335 913.455h-383.761c-35.412 0-64.119-28.707-64.119-64.119v-364.31h-93.091v-74.050h93.091v-364.31c0-35.412 28.707-64.119 64.119-64.119h383.762c35.412 0 64.119 28.707 64.119 64.119v802.67c0 35.411-28.708 64.119-64.12 64.119zM529.574 29.091c-9.69 0-17.574 7.884-17.574 17.574v802.67c0 9.69 7.883 17.574 17.574 17.574h383.762c9.69 0 17.574-7.884 17.574-17.574v-802.67c0-9.69-7.883-17.574-17.574-17.574h-383.762zM698.182 773.818h-93.091v-93.091h93.091v93.091zM837.818 773.818h-93.091v-93.091h93.091v93.091zM698.182 634.182h-93.091v-93.091h93.091v93.091zM837.818 634.182h-93.091v-93.091h93.091v93.091zM698.182 494.546h-93.091v-93.091h93.091v93.091zM168.148 866.909c9.944 0 18.033-8.090 18.033-18.033v-103.569c0-9.944-8.090-18.033-18.033-18.033h-57.024c-9.944 0-18.033 8.090-18.033 18.033v103.57c0 9.944 8.090 18.033 18.033 18.033h57.024zM168.148 541.091c9.944 0 18.033-8.090 18.033-18.033v-150.115c0-9.944-8.090-18.033-18.033-18.033h-57.024c-9.944 0-18.033 8.090-18.033 18.033v150.114c0 9.944 8.090 18.033 18.033 18.033h57.024zM168.148 168.727c9.944 0 18.033-8.090 18.033-18.033v-103.569c0-9.944-8.090-18.033-18.033-18.033h-57.024c-9.944 0-18.033 8.090-18.033 18.033v103.57c0 9.944 8.090 18.033 18.033 18.033h57.024zM168.148 913.455h-57.024c-35.666 0-64.579-28.913-64.579-64.579v-103.57c0-35.666 28.913-64.579 64.579-64.579h57.024c35.666 0 64.579 28.913 64.579 64.579v28.512h93.091v-288.793h-93.091v38.033c0 35.666-28.913 64.579-64.579 64.579h-57.024c-35.666 0-64.579-28.913-64.579-64.579v-150.115c0-35.666 28.913-64.579 64.579-64.579h57.024c35.666 0 64.579 28.913 64.579 64.579v38.033h93.091v-288.793h-93.091v28.512c0 35.666-28.913 64.579-64.579 64.579h-57.024c-35.666 0-64.579-28.913-64.579-64.579v-103.57c0-35.666 28.913-64.579 64.579-64.579h57.024c35.666 0 64.579 28.913 64.579 64.579v28.512h93.091c25.706 0 46.545 20.839 46.545 46.545v651.636c0 25.706-20.839 46.545-46.545 46.545h-93.091v28.512c0 35.667-28.913 64.58-64.579 64.58zM837.818 494.546h-93.091v-93.091h93.091v93.091zM698.182 354.909h-93.091v-93.091h93.091v93.091zM837.818 354.909h-93.091v-93.091h93.091v93.091zM698.182 215.273h-93.091v-93.091h93.091v93.091zM837.818 215.273h-93.091v-93.091h93.091v93.091z" />
<glyph unicode="&#xe923;" glyph-name="fm" d="M941.5 419.1h-859c-11 0-20 9-20 20s9 20 20 20h859c11 0 20-9 20-20s-9-20-20-20zM243 611.9l38-98.6 57.9 66.2 103.7-78.6 72.4 92.7 66.9-53.8 60.8-100.9h284.8l-139.3 153.2-64.3-59.6-148.4 170.4-67.9-50.1-126.9 199.3-82.2-174.2-75.6 84.1-121.7-323.1h75.2zM278.5 627.9l82.2 174.2 126.9-199.3 67.9 50.1 148.4-170.4 64.3 59.6 93.8-103.2h65.5l-139.3 153.2-64.3-59.6-148.4 170.4-67.9-50.1-126.9 199.3-82.2-174.2-75.6 84.1-19.1-50.9zM223 561.9l-47.3-123h0.7l47 122.1zM927.5 418.9h-284.8c-7 0-13.5 3.7-17.1 9.7l-59 97.9-48.4 38.9-59.9-76.7c-6.7-8.6-19.1-10.2-27.8-3.6l-88.8 67.4-45.7-52.3c-4.6-5.3-11.7-7.7-18.5-6.5-6.9 1.2-12.7 6-15.2 12.5l-19.3 50-47.9-124.6c-3-7.7-10.4-12.8-18.7-12.8h-75.2c-6.6 0-12.7 3.2-16.4 8.6s-4.6 12.3-2.3 18.4l121.7 323.3c2.5 6.5 8.2 11.3 15 12.6 6.9 1.3 13.9-1.1 18.6-6.3l55.4-61.7 69.4 147c3.1 6.6 9.6 11 16.8 11.4 7.3 0.5 14.2-3.1 18.1-9.2l115.5-181.3 50.6 37.4c8.4 6.2 20.1 4.9 26.9-3l134.8-154.9 49.2 45.6c3.9 3.6 9.1 5.5 14.4 5.3s10.3-2.6 13.9-6.5l139.3-153.2c5.3-5.9 6.7-14.3 3.5-21.5-3-7.3-10.2-11.9-18.1-11.9zM654 458.9h228.3l-95.3 104.8-49.5-45.9c-4-3.7-9.2-5.6-14.7-5.3-5.4 0.3-10.5 2.8-14 6.8l-136.3 156.5-53.1-39.1c-4.5-3.3-10.1-4.6-15.5-3.6s-10.2 4.2-13.2 8.9l-107.4 168.8-66.8-141.5c-2.9-6.1-8.6-10.3-15.2-11.3s-13.3 1.4-17.8 6.4l-53.4 59.7-99.9-265.3h32.5l61.7 160.3c3 7.7 10.4 12.8 18.7 12.8s15.7-5.1 18.7-12.8l26-67.7 36.1 41.3c6.9 7.9 18.8 9.1 27.1 2.8l88-66.7 60.3 77.2c3.3 4.2 8.1 6.9 13.5 7.6 5.3 0.6 10.7-0.9 14.8-4.3l66.9-53.9c1.8-1.5 3.4-3.2 4.6-5.3l54.9-91.2zM852.3 437.1l-66.6-173-37.9 98.6-57.9-106.2-103.7 88.6-72.4-42.7-66.9 33.8-60.9 100.9h-284.8l139.3-233.2 64.4 119.6 148.3-201.4 68 91.1 126.9-169.3 82.2 154.2 75.5-114.1 121.7 353.1zM883.4 437.1l-97.6-283.1-75.5 114.1-82.2-154.2-126.9 169.3-68-91.1-148.3 201.4-64.4-119.6-97.4 163.2h-21.9l139.3-233.2 64.4 119.6 148.3-201.4 68 91.1 126.9-169.3 82.2 154.2 75.5-114.1 121.7 353.1zM648.1 23.9c-6.3 0-12.2 2.9-16 8l-110.9 147.9-51.9-69.6c-3.8-5.1-9.7-8-16-8h-0.1c-6.3 0-12.3 3-16 8.1l-129.6 176-49.4-91.8c-3.4-6.3-10-10.4-17.2-10.5s-13.9 3.6-17.6 9.7l-139.3 233.2c-3.7 6.2-3.8 13.9-0.2 20.1 3.6 6.3 10.2 10.1 17.4 10.1h284.7c7 0 13.5-3.7 17.1-9.7l57.9-96 52-26.3 63 37.2c7.4 4.3 16.7 3.5 23.2-2l84.9-72.6 46.1 84.5c3.7 6.8 11.1 10.9 18.9 10.4s14.5-5.5 17.3-12.8l19.3-50.1 47.9 124.6c3 7.7 10.4 12.8 18.7 12.8h75.2c6.5 0 12.5-3.1 16.3-8.4s4.7-12 2.6-18.1l-121.7-353.1c-2.5-7.2-8.8-12.4-16.4-13.3-7.6-1-15 2.5-19.2 8.8l-57 86.1-66.4-124.6c-3.2-6-9.3-10-16.1-10.5-0.5-0.1-1-0.1-1.5-0.1zM521.2 233.2c6.3 0 12.2-3 16-8l108-144.1 67.4 126.5c3.3 6.2 9.7 10.2 16.7 10.6 7 0.3 13.7-3.1 17.6-8.9l53.1-80.3 99.3 288.3h-33.4l-61.7-160.3c-3-7.7-10.4-12.8-18.7-12.8s-15.7 5.1-18.7 12.8l-22.4 58.2-37.2-68.2c-2.9-5.3-8-9-13.9-10.1s-12 0.6-16.6 4.5l-92.8 79.4-60.1-35.5c-5.9-3.5-13.1-3.7-19.2-0.6l-66.9 33.9c-3.4 1.7-6.2 4.3-8.1 7.5l-55 91.2h-238.1l103.1-172.7 47.6 88.5c3.2 6 9.4 10 16.2 10.5s13.4-2.6 17.5-8.1l132.4-179.7 51.8 69.4c3.8 5 9.7 8 16.1 8z" />
<glyph unicode="&#xe924;" glyph-name="sj" d="M784.322 487.259l-238.707-137.819v-275.621l238.707-137.819 238.707 137.819v275.621zM0 349.44v-275.621l238.707-137.819 238.707 137.819v275.621l-238.707 137.819zM750.050 822.198l-238.707 137.819-238.707-137.819v-275.621l238.707-137.819 238.707 137.819z" />
<glyph unicode="&#xe925;" glyph-name="zm" d="M109.408 620.539h377.693v-36.472h-377.693v36.472zM109.408 447.649h377.693v-36.472h-377.693v36.472zM109.408 275.11h816.406v-36.472h-816.406v36.472zM910.033 361.38c0-8.417-7.364-15.43-16.482-15.43h-296.333c-9.118 0-16.482 7.014-16.482 15.43 0 0 0 55.76 44.187 75.749 28.055 12.976 10.17 2.455 44.538 15.43s35.42 17.534 35.42 17.534l0.351 30.159s-12.976 9.118-16.833 37.524c-8.066-2.104-10.521 8.767-11.222 15.43-0.351 6.663-4.559 27.354 5.26 25.6-2.104 14.028-3.507 26.302-2.806 32.965 2.455 23.146 27.003 47.694 64.527 49.447 44.187-1.753 61.721-25.951 64.176-49.447 0.701-6.663-0.701-19.288-2.806-32.965 9.819 1.753 5.611-18.937 4.91-25.6-0.351-7.014-3.156-17.534-11.222-15.43-3.858-28.406-16.833-37.173-16.833-37.173l0.351-30.159s4.559-4.208 38.927-17.184c34.368-12.976 16.482-3.156 44.538-16.132 43.836-19.989 43.836-75.749 43.836-75.749zM959.129 80.477h-894.259c-33.666 0-60.669 27.354-60.669 60.669v576.534c0 33.666 27.354 60.669 60.669 60.669h894.259c33.666 0 60.669-27.354 60.669-60.669v-576.183c0-33.666-27.003-61.020-60.669-61.020zM64.871 756.256c-21.392 0-38.576-17.184-38.576-38.576v-576.183c0-21.392 17.184-38.576 38.576-38.576h894.259c21.392 0 38.576 17.184 38.576 38.576v576.183c0 21.392-17.184 38.576-38.576 38.576h-894.259z" />
</font>
</defs>
</svg>
